<svg xmlns="http://www.w3.org/2000/svg" viewBox="0 0 68 68" id="stock-report"><path d="M34,22.54H22.24V10.75A11.79,11.79,0,1,0,34,22.54Z"></path><path d="M26,7V18.78H37.78A11.79,11.79,0,0,0,26,7Z"></path><rect width="4.98" height="19.94" x="7" y="41.06"></rect><rect width="4.98" height="13" x="17.3" y="48"></rect><rect width="4.98" height="8.12" x="27.6" y="52.88"></rect><path d="M44.88 30.82a1.42 1.42 0 0 0-.36 0 1 1 0 0 0 .24 2h.14a1 1 0 0 0 0-2zm0 1.2v0zM41.09 31.74a8.26 8.26 0 0 0-4.51 7.38 1 1 0 0 0 2 0A6.26 6.26 0 0 1 42 33.52a1 1 0 0 0-.92-1.78z"></path><path d="M66,55.15l-6.25-6.24A2.51,2.51,0,0,0,59.27,46l-2-2a13.13,13.13,0,0,0,.92-4.83A13.31,13.31,0,0,0,47.24,26V5a4,4,0,0,0-4-4H5A4,4,0,0,0,1,5V63a4,4,0,0,0,4,4H43.24a4,4,0,0,0,4-4V52.2a13.47,13.47,0,0,0,2.47-.7l2,2a2.54,2.54,0,0,0,1.79.74,2.47,2.47,0,0,0,1.16-.3l6.24,6.25a3.57,3.57,0,0,0,5-5.05ZM45.24,63a2,2,0,0,1-2,2H5a2,2,0,0,1-2-2V5A2,2,0,0,1,5,3H43.24a2,2,0,0,1,2,2V25.84l-.36,0a13.3,13.3,0,0,0,0,26.6l.36,0Zm-.36-12.58a11.3,11.3,0,1,1,11.3-11.3A11.31,11.31,0,0,1,44.88,50.42Zm19.66,8.36a1.56,1.56,0,0,1-2.21,0l-6.15-6.15,2.21-2.22,6.15,6.16A1.56,1.56,0,0,1,64.54,58.78Z"></path></svg>