<svg xmlns="http://www.w3.org/2000/svg" viewBox="0 0 1024 1024" id="finance-analysis"><circle cx="278.1" cy="167.4" r="100.1"></circle><path d="m327 296-48.8 97-48.8-97h-51.7c-37.9 0-69.5 26.1-77.8 61.4-.4 1.8-1 3.5-1 5.3v259.5c0 24.8 20 44.8 44.7 44.8 12.4 0 23.5-5 31.6-13.1 8.1-8.1 11.7-19.3 11.7-31.7V439.6v472.3c0 12.4 6.3 23.6 14.5 31.7 8.1 8.1 19.4 13.1 31.8 13.1 24.2 0 44-19.2 44.8-43.2v-246 246c.6 11.5 5.6 22.5 13.3 30.1 8.1 8.1 19.5 13.1 31.8 13.1 24.8 0 44.7-20.1 44.7-44.8l.1-472.3v182.6c0 24.8 19.7 44.8 44.4 44.8 12.4 0 23.3-5 31.4-13.1 8.1-8.1 13.1-19.3 13.1-31.7V375.8c0-44.2-35.7-79.8-79.9-79.8H327zm152.1 646.9 57.3-72.3c30.5-38.4 60.9-76.8 91.4-115.2 7-8.8 14-17.6 20.9-26.4-9.9 1.3-19.8 2.6-29.7 3.8 31.8 20 63.6 39.9 95.4 59.9 4.5 2.8 9 5.7 13.5 8.5 9.2 5.8 22.2 3.7 29.7-3.8l62.7-62.4c33-32.9 66-65.7 99.1-98.6 7.6-7.6 15.2-15.2 22.9-22.7 9.1-9.1 9.7-25.7 0-34.6-9.8-9-24.9-9.7-34.6 0L845 641.5c-33 32.9-66 65.7-99.1 98.6-7.6 7.6-15.2 15.2-22.9 22.7 9.9-1.3 19.8-2.6 29.7-3.8-31.8-20-63.6-39.9-95.4-59.9-4.5-2.8-9-5.7-13.5-8.5-8.3-5.2-23.2-4.4-29.7 3.8l-57.3 72.3c-30.5 38.4-60.9 76.8-91.4 115.2-7 8.8-14 17.6-20.9 26.4-4.2 5.3-7.2 10.3-7.2 17.3 0 6 2.7 13.2 7.2 17.3 8.8 8.1 26.1 10.7 34.6 0z"></path><path d="M824.1 620.7h101.1l-24.5-24.5v101.1c0 12.8 11.3 25.1 24.5 24.5 13.3-.6 24.5-10.8 24.5-24.5V596.2c0-13.2-11.2-24.5-24.5-24.5H824.1c-12.8 0-25.1 11.3-24.5 24.5.6 13.3 10.8 24.5 24.5 24.5zM870 330v.3c0 82-66.4 148.5-148.4 148.5s-148.2-66.5-148.2-148.5S640 181.8 722 181.8V330h148z"></path><path d="M905.2 293H758V147h.4c12.7 0 25 1.3 36.7 4.3 1.2.3 2.3.7 3.5.7 61.6 18 106.6 74 106.6 141z"></path></svg>