<svg xmlns="http://www.w3.org/2000/svg" viewBox="0 0 512 512" id="profit"><g><path fill="#80eaff" d="M435.806,483.589a82.589,82.589,0,0,1-101.27,1.737H110.374a19.87,19.87,0,0,1-19.87-19.87V444.4H305.268a82.739,82.739,0,0,1,96.948-106.131V51.115h25.491a19.87,19.87,0,0,1,19.87,19.87v295A82.615,82.615,0,0,1,445.288,474.7,19.931,19.931,0,0,1,435.806,483.589ZM301.276,255.523V110.66H260.417v31.176h-40.86v31.176H178.7v31.175H137.839v51.336Z"></path><path fill="#004fac" d="M137.839,262.523H301.276a7,7,0,0,0,7-7V110.66a7,7,0,0,0-7-7H260.417a7,7,0,0,0-7,7v24.176h-33.86a7,7,0,0,0-7,7v24.176H178.7a7,7,0,0,0-7,7v24.176H137.839a7,7,0,0,0-7,7v51.335A7,7,0,0,0,137.839,262.523ZM267.417,117.66h26.859V248.523H267.417Zm-40.86,31.176h26.86v99.687h-26.86ZM185.7,180.012h26.859v68.511H185.7Zm-40.859,31.176H171.7v37.335H144.839Zm5.51-51.047a7,7,0,0,1,1.63-9.765l120.461-86-5.966-1a7,7,0,1,1,2.3-13.808l22.636,3.778a7,7,0,0,1,5.752,8.057L293.062,86a7,7,0,1,1-13.809-2.305l1.322-7.922-120.462,86a7,7,0,0,1-9.764-1.63ZM108.522,294.085a7,7,0,0,1,7-7H328.6a7,7,0,0,1,0,14H115.522A7,7,0,0,1,108.522,294.085Zm0,38.561a7,7,0,0,1,7-7H328.6a7,7,0,0,1,0,14H115.522A7,7,0,0,1,108.522,332.646ZM454.577,363.5V70.985a26.9,26.9,0,0,0-26.87-26.87H409.216V26.277A23.119,23.119,0,0,0,386.123,3.184H61.236A23.119,23.119,0,0,0,38.143,26.277V428.3A23.119,23.119,0,0,0,61.236,451.4H83.5v14.061a26.9,26.9,0,0,0,26.87,26.87H332.263A89.746,89.746,0,0,0,454.577,363.5Zm-26.87-305.38a12.884,12.884,0,0,1,12.87,12.87V349.3a89.634,89.634,0,0,0-31.361-16.479V58.115ZM52.143,428.3V26.277a9.1,9.1,0,0,1,9.093-9.093H386.123a9.1,9.1,0,0,1,9.093,9.093v303.65A89.739,89.739,0,0,0,313,364.208H115.522a7,7,0,1,0,0,14H304.1a89.826,89.826,0,0,0-7.933,59.187H61.236A9.1,9.1,0,0,1,52.143,428.3ZM97.5,465.456V451.4H300.315a89.946,89.946,0,0,0,16.39,26.931H110.374A12.885,12.885,0,0,1,97.5,465.456Zm286.562,29.36a75.791,75.791,0,1,1,75.791-75.79A75.876,75.876,0,0,1,384.066,494.816Zm29.107-61.428a25.875,25.875,0,0,1-13.549,27.3,34.25,34.25,0,0,1-8.558,3.192v9.372a7,7,0,0,1-14,0v-9.025a33.712,33.712,0,0,1-7.161-2.11c-7.575-3.2-13.067-9.049-15.067-16.045a7,7,0,1,1,13.461-3.848c1.137,3.974,4.908,6.089,7.055,7A20.929,20.929,0,0,0,393,448.358a12.07,12.07,0,0,0,6.395-12.486c-1.191-6.6-8.227-11.262-19.3-12.777-11.224-1.537-19.484-7.707-22.664-16.928a23.856,23.856,0,0,1,5.417-24.192,29.153,29.153,0,0,1,14.221-7.834v-9.354a7,7,0,0,1,14,0v9.157a31.332,31.332,0,0,1,18.048,11.088,7,7,0,1,1-10.869,8.824,17.49,17.49,0,0,0-12.941-6.57c-4.795-.211-9.549,1.489-12.415,4.442a9.74,9.74,0,0,0-2.225,9.876c1.416,4.108,5.439,6.814,11.326,7.62C399.212,411.581,410.87,420.614,413.173,433.388Z"></path></g></svg>