<svg xmlns="http://www.w3.org/2000/svg" width="36" height="36" id="insurance"><g color="#000"><path fill="#25b39e" d="M6 1026.862v12.5c-.03 7 10.5 9.5 10.5 9.5s10.5-2.5 10.5-9.5v-12.5l-10.5-3z" overflow="visible" style="isolation:auto;mix-blend-mode:normal" transform="translate(1.5 -1017.862)"></path><g transform="translate(-327 -2214.862)"><circle cx="345" cy="2233.362" fill="#fcd062" stroke="#f8b84e" stroke-linecap="round" stroke-linejoin="round" stroke-miterlimit="0" overflow="visible" style="isolation:auto;mix-blend-mode:normal" r="5.5"></circle><path fill="#34485c" fill-rule="evenodd" d="M342.526 2229.362v.01h-.021v1h1.025c.933 0 1.406.442 1.576.99h-2.58v1h2.58c-.17.55-.641.993-1.576.993h-1.025v1h.295l3.05 3.007.702-.71-2.395-2.364c1.085-.227 1.783-1.035 1.975-1.926h1.363v-1h-1.363c-.078-.36-.246-.7-.48-1h1.843v-1h-4.969z" font-family="sans-serif" font-weight="400" overflow="visible" style="line-height:normal;text-indent:0;text-align:start;text-decoration-line:none;text-decoration-style:solid;text-decoration-color:#000;text-transform:none;block-progression:tb;isolation:auto;mix-blend-mode:normal"></path></g><path fill="#e9eded" style="line-height:normal;text-indent:0;text-align:start;text-decoration-line:none;text-decoration-style:solid;text-decoration-color:#000;text-transform:none;block-progression:tb;isolation:auto;mix-blend-mode:normal" d="M16.479 2.5a1 1 0 0 0-.254.04l-10.5 3A1 1 0 0 0 5 6.5V19c-.015 4 2.97 6.662 5.744 8.244 2.775 1.583 5.526 2.229 5.526 2.229a1 1 0 0 0 .462 0s2.744-.646 5.514-2.229C25.016 25.661 28 23 28 19V6.5a1 1 0 0 0-.725-.96l-10.5-3a1 1 0 0 0-.296-.04Zm.021 1 10.5 3V19c0 7-10.5 9.5-10.5 9.5S5.97 26 6 19V6.5l10.5-3Z" font-family="sans-serif" font-weight="400" overflow="visible" transform="translate(1.5 2.5)"></path></g></svg>