<svg xmlns="http://www.w3.org/2000/svg" viewBox="0 0 64 64" id="investment"><path d="M62.58,41c-1.11-1.51-3.09-1.92-5.21-1l-8.1,4a8.67,8.67,0,0,0-4.71-3.28,16.22,16.22,0,0,1-3.49-1.78c-.68-.42-1.45-.9-2.49-1.44a9.3,9.3,0,0,0-2.48-.87,31.34,31.34,0,0,1,0-3.36,8.29,8.29,0,0,0,2.09.29A5.33,5.33,0,0,0,40.62,33c2.42-1.23,3.19-4.42,3.22-4.54a.52.52,0,0,0-.28-.58c-.13,0-3.15-1.31-5.57-.09a4.57,4.57,0,0,0-1.29,1,24.2,24.2,0,0,1,6.47-12.26,8.5,8.5,0,0,0,3.49.75,8.64,8.64,0,1,0-6-2.43,26.49,26.49,0,0,0-4.1,5.58,10.64,10.64,0,0,0-4.75-3.82A8.46,8.46,0,0,0,33.12,12a8.6,8.6,0,1,0-8.59,8.6,8.47,8.47,0,0,0,5.14-1.74,7.19,7.19,0,0,1,5.28,5c-.26.69-.49,1.39-.71,2.11a5.46,5.46,0,0,0-1.52-2c-2.25-1.83-5.69-1.2-5.83-1.17a.51.51,0,0,0-.41.5c0,.14.08,3.65,2.33,5.47a6.75,6.75,0,0,0,4.24,1.29h.22a42.61,42.61,0,0,0-.73,6.57,9.3,9.3,0,0,0-1.68.58,19.24,19.24,0,0,1-4.43,1.36c-.93.19-2.07.44-3.58.83a6.89,6.89,0,0,0-2.76,1.5l-4.41-2.13a7.41,7.41,0,0,0-3.22-.73h-2a1.88,1.88,0,0,0-1.86-1.69h-6A1.88,1.88,0,0,0,.76,38.26v19a1.87,1.87,0,0,0,1.88,1.88h6a1.86,1.86,0,0,0,1.86-1.72H12.2a6,6,0,0,1,2.09.38l15.64,5.74a8.35,8.35,0,0,0,7.59-1L61.28,46.31C62.05,45.76,64.37,44.09,62.58,41ZM9.51,56.86s0,0,0,0v.33a.89.89,0,0,1-.9.89h-6a.89.89,0,0,1-.9-.89v-19a.9.9,0,0,1,.9-.9h6a.9.9,0,0,1,.9.9ZM38.44,28.61a6.06,6.06,0,0,1,4.32,0,6.08,6.08,0,0,1-2.58,3.48,6.1,6.1,0,0,1-4.32,0A6.05,6.05,0,0,1,38.44,28.61Zm.61-20a7.61,7.61,0,1,1,7.61,7.61A7.62,7.62,0,0,1,39.05,8.6Zm-14.52,11A7.61,7.61,0,1,1,32.14,12,7.62,7.62,0,0,1,24.53,19.65ZM34.27,30l.37-.05a.5.5,0,0,0,.4-.49,9.25,9.25,0,0,0-.24-1.77,33.77,33.77,0,0,1,1.12-3.58L36,24l0-.14a8,8,0,0,0-5.39-5.69c.26-.26.49-.53.72-.81a9.5,9.5,0,0,1,4.9,4.23l.45.85.43-.86a25.58,25.58,0,0,1,4.39-6.16,9.28,9.28,0,0,0,.83.56,25.61,25.61,0,0,0-6.89,14.66,8.26,8.26,0,0,0-.61,1.65.49.49,0,0,0,.29.56l.09,0a31.87,31.87,0,0,0,0,3.53,7.62,7.62,0,0,0-1.58.05A45,45,0,0,1,34.27,30Zm-4.84-2a6.61,6.61,0,0,1-1.93-4.3,6.6,6.6,0,0,1,4.6,1A6.64,6.64,0,0,1,34,29.06,6.7,6.7,0,0,1,29.43,28ZM23.1,40.38c1.48-.39,2.62-.64,3.53-.84a19.33,19.33,0,0,0,4.64-1.42,7.37,7.37,0,0,1,6.85.16c1,.52,1.76,1,2.42,1.41a17,17,0,0,0,3.7,1.87,7.85,7.85,0,0,1,4.14,2.79l-6.15,3a4.16,4.16,0,0,0-4-3.24l-10.73-.26a6.19,6.19,0,0,1-2.64-.64l-3.83-1.84A5.87,5.87,0,0,1,23.1,40.38ZM60.72,45.5,37,61.74a7.39,7.39,0,0,1-6.7.82L14.63,56.82a7.23,7.23,0,0,0-2.43-.43H10.49V39h2a6.6,6.6,0,0,1,2.8.64l4.68,2.25,0,0,4.48,2.16a7.51,7.51,0,0,0,3,.74l10.74.26a3.14,3.14,0,0,1,3,2.47,3.69,3.69,0,0,1,.07.53v0c0,.07,0,.14,0,.19a3.14,3.14,0,0,1-1,2.22,3.09,3.09,0,0,1-2.27.73H29.46a.49.49,0,0,0-.49.49.48.48,0,0,0,.49.49h8.75a4,4,0,0,0,2.83-1,4.15,4.15,0,0,0,1.28-2.88l7-3.4h0l8.48-4.16c.63-.25,2.76-1,4,.7C62.68,43.14,62.36,44.32,60.72,45.5Z"></path><path fill="#b8c5dc" d="M9.51,56.86s0,0,0,0v.33a.89.89,0,0,1-.9.89h-6a.89.89,0,0,1-.9-.89v-19a.9.9,0,0,1,.9-.9h6a.9.9,0,0,1,.9.9Z"></path><path fill="#c1cbda" d="M9.51,38.26v1.89a.83.83,0,0,0-.9-.72h-6a.83.83,0,0,0-.9.72V38.26a.9.9,0,0,1,.9-.9h6A.9.9,0,0,1,9.51,38.26Z"></path><path fill="#adc0db" d="M9.51,56.86s0,0,0,0v.33a.89.89,0,0,1-.9.89h-6a.89.89,0,0,1-.9-.89v-1.9a.81.81,0,0,0,.9.71h6a.81.81,0,0,0,.9-.71Z"></path><path fill="#41b97b" d="M42.76,28.59a6.08,6.08,0,0,1-2.58,3.48,6.1,6.1,0,0,1-4.32,0,6.05,6.05,0,0,1,2.58-3.47A6.06,6.06,0,0,1,42.76,28.59Z"></path><path fill="#2daf6e" d="M42.76,28.59a6.08,6.08,0,0,1-2.58,3.48,6.1,6.1,0,0,1-4.32,0c0-.15.12-.33.19-.53a5.64,5.64,0,0,0,3.64-.21,5.63,5.63,0,0,0,2.38-2.93C42.35,28.47,42.57,28.53,42.76,28.59Z"></path><path fill="#41b97b" d="M34,29.06a6.7,6.7,0,0,1-4.6-1,6.61,6.61,0,0,1-1.93-4.3,6.6,6.6,0,0,1,4.6,1A6.64,6.64,0,0,1,34,29.06Z"></path><path fill="#2daf6e" d="M34,29.06a6.7,6.7,0,0,1-4.6-1,6.61,6.61,0,0,1-1.93-4.3l.59,0A6.3,6.3,0,0,0,30,27.58a6.14,6.14,0,0,0,4,1.05C34,28.79,34,28.94,34,29.06Z"></path><path fill="#eebb5f" d="M48.38,44.35l-6.15,3a4.16,4.16,0,0,0-4-3.24l-10.73-.26a6.19,6.19,0,0,1-2.64-.64l-3.83-1.84a5.87,5.87,0,0,1,2-1c1.48-.39,2.62-.64,3.53-.84a19.33,19.33,0,0,0,4.64-1.42,7.37,7.37,0,0,1,6.85.16c1,.52,1.76,1,2.42,1.41a17,17,0,0,0,3.7,1.87A7.85,7.85,0,0,1,48.38,44.35Z"></path><path fill="#f4c66a" d="M48.38,44.35l-.85.42A9.75,9.75,0,0,0,44.24,43a17,17,0,0,1-3.7-1.87c-.66-.42-1.41-.89-2.42-1.41a7.37,7.37,0,0,0-6.85-.16,19.33,19.33,0,0,1-4.64,1.42c-.91.2-2.05.44-3.53.84a3.49,3.49,0,0,0-.71.24l-1.33-.64a5.87,5.87,0,0,1,2-1c1.48-.39,2.62-.64,3.53-.84a19.33,19.33,0,0,0,4.64-1.42,7.37,7.37,0,0,1,6.85.16c1,.52,1.76,1,2.42,1.41a17,17,0,0,0,3.7,1.87A7.85,7.85,0,0,1,48.38,44.35Z"></path><path d="M46.66,2A6.62,6.62,0,1,0,53.28,8.6,6.62,6.62,0,0,0,46.66,2Zm0,12.25A5.64,5.64,0,1,1,52.29,8.6,5.63,5.63,0,0,1,46.66,14.23Z"></path><path fill="#fcd87a" d="M46.66,3A5.64,5.64,0,1,0,52.29,8.6,5.63,5.63,0,0,0,46.66,3Zm1.82,7.6a1.52,1.52,0,0,1-.4.54,2.36,2.36,0,0,1-.65.35,3.13,3.13,0,0,1-.85.16l-.11,1a.43.43,0,0,0,0,0,.1.1,0,0,1-.05,0l-.09,0H46l-.11,0a.12.12,0,0,1,0-.05.16.16,0,0,1,0-.07l.11-1-.41-.08-.35-.09-.26-.11a.73.73,0,0,1-.15-.11.19.19,0,0,1-.07-.12.75.75,0,0,1,0-.23.81.81,0,0,1,0-.17.21.21,0,0,1,0-.12.12.12,0,0,1,.05-.05l.07,0a.43.43,0,0,1,.17.07l.3.15.45.15a2.54,2.54,0,0,0,.65.07,1.7,1.7,0,0,0,1-.26.88.88,0,0,0,.34-.72.76.76,0,0,0-.13-.46,1,1,0,0,0-.33-.32,2.28,2.28,0,0,0-.47-.23l-.55-.2-.54-.22a2.17,2.17,0,0,1-.47-.32A1.26,1.26,0,0,1,45,7.74a1.48,1.48,0,0,1-.13-.67,1.4,1.4,0,0,1,.11-.58A1.13,1.13,0,0,1,45.26,6a1.72,1.72,0,0,1,.54-.34,2.63,2.63,0,0,1,.77-.16l.1-1s0,0,0,0,0,0,0,0l.09,0h.32l.11,0s0,0,0,0a.15.15,0,0,1,0,.07l-.1.93.3.06.28.08.25.1a.49.49,0,0,1,.15.09l0,.07s0,0,0,.08,0,.06,0,.09v.29a.87.87,0,0,1,0,.1.15.15,0,0,1,0,.06l-.05,0A.43.43,0,0,1,48,6.5a1.58,1.58,0,0,0-.29-.14,2.54,2.54,0,0,0-.39-.13,2,2,0,0,0-.5-.06,2,2,0,0,0-.54.06,1.06,1.06,0,0,0-.37.17.9.9,0,0,0-.21.27.9.9,0,0,0,0,.34.77.77,0,0,0,.12.47,1.21,1.21,0,0,0,.35.32,1.7,1.7,0,0,0,.47.22l.55.2a4.53,4.53,0,0,1,.55.23,2,2,0,0,1,.48.3,1.83,1.83,0,0,1,.34.47,1.6,1.6,0,0,1,.13.67A1.5,1.5,0,0,1,48.48,10.56Z"></path><path d="M48.63 9.89a1.5 1.5 0 0 1-.15.67 1.52 1.52 0 0 1-.4.54 2.36 2.36 0 0 1-.65.35 3.13 3.13 0 0 1-.85.16l-.11 1a.43.43 0 0 0 0 0 .1.1 0 0 1-.05 0l-.09 0H46l-.11 0a.12.12 0 0 1 0-.05.16.16 0 0 1 0-.07l.11-1-.41-.08-.35-.09-.26-.11a.73.73 0 0 1-.15-.11.19.19 0 0 1-.07-.12.75.75 0 0 1 0-.23.81.81 0 0 1 0-.17.21.21 0 0 1 0-.12.12.12 0 0 1 .05-.05l.07 0a.43.43 0 0 1 .17.07l.3.15.45.15a2.54 2.54 0 0 0 .65.07 1.7 1.7 0 0 0 1-.26.88.88 0 0 0 .34-.72.76.76 0 0 0-.13-.46 1 1 0 0 0-.33-.32 2.28 2.28 0 0 0-.47-.23l-.55-.2-.54-.22a2.17 2.17 0 0 1-.47-.32A1.26 1.26 0 0 1 45 7.74a1.48 1.48 0 0 1-.13-.67 1.4 1.4 0 0 1 .11-.58A1.13 1.13 0 0 1 45.26 6a1.72 1.72 0 0 1 .54-.34 2.63 2.63 0 0 1 .77-.16l.1-1s0 0 0 0 0 0 0 0l.09 0h.32l.11 0s0 0 0 0a.15.15 0 0 1 0 .07l-.1.93.3.06.28.08.25.1a.49.49 0 0 1 .15.09l0 .07s0 0 0 .08 0 .06 0 .09v.29a.87.87 0 0 1 0 .1.15.15 0 0 1 0 .06l-.05 0A.43.43 0 0 1 48 6.5a1.58 1.58 0 0 0-.29-.14 2.54 2.54 0 0 0-.39-.13 2 2 0 0 0-.5-.06 2 2 0 0 0-.54.06 1.06 1.06 0 0 0-.37.17.9.9 0 0 0-.21.27.9.9 0 0 0 0 .34.77.77 0 0 0 .12.47 1.21 1.21 0 0 0 .35.32 1.7 1.7 0 0 0 .47.22l.55.2a4.53 4.53 0 0 1 .55.23 2 2 0 0 1 .48.3 1.83 1.83 0 0 1 .34.47A1.6 1.6 0 0 1 48.63 9.89zM24.53 5.43A6.62 6.62 0 1 0 31.14 12 6.61 6.61 0 0 0 24.53 5.43zm0 12.24A5.63 5.63 0 1 1 30.16 12 5.64 5.64 0 0 1 24.53 17.67z"></path><path fill="#fcd87a" d="M24.53,6.41A5.63,5.63,0,1,0,30.16,12,5.63,5.63,0,0,0,24.53,6.41ZM26.35,14a1.43,1.43,0,0,1-.41.53,1.93,1.93,0,0,1-.65.36,3.06,3.06,0,0,1-.84.15l-.11,1a.14.14,0,0,1,0,.06s0,0,0,0l-.09,0h-.32l-.11,0a.12.12,0,0,1-.05-.05.08.08,0,0,1,0-.07l.11-1a3,3,0,0,1-.43-.07l-.33-.09-.27-.11a.73.73,0,0,1-.15-.11.31.31,0,0,1-.06-.13.68.68,0,0,1,0-.22.81.81,0,0,1,0-.17.21.21,0,0,1,0-.12.09.09,0,0,1,0-.06l.07,0a.53.53,0,0,1,.18.07,2.59,2.59,0,0,0,.3.16,3.92,3.92,0,0,0,.45.15,2.49,2.49,0,0,0,.65.07,1.6,1.6,0,0,0,1-.27.84.84,0,0,0,.35-.71.74.74,0,0,0-.13-.46,1.07,1.07,0,0,0-.34-.33,1.86,1.86,0,0,0-.47-.22l-.54-.2c-.19-.07-.36-.15-.54-.23a2,2,0,0,1-.47-.31,1.53,1.53,0,0,1-.34-.46,1.51,1.51,0,0,1-.13-.67,1.44,1.44,0,0,1,.11-.59,1.29,1.29,0,0,1,.33-.48,1.5,1.5,0,0,1,.54-.33A2.5,2.5,0,0,1,24.44,9l.09-1s0,0,0,0l.05,0,.09,0H25l.11,0a.07.07,0,0,1,0,0,.11.11,0,0,1,0,.06l-.1.94.29,0,.29.09.24.1.15.08.05.07s0,.05,0,.08,0,.06,0,.1v.29a.41.41,0,0,1,0,.09.15.15,0,0,1,0,.06L26,10a.43.43,0,0,1-.17-.06,1.92,1.92,0,0,0-.28-.13,2.69,2.69,0,0,0-.4-.13,1.9,1.9,0,0,0-.5-.06,2.12,2.12,0,0,0-.54.06,1,1,0,0,0-.36.17.75.75,0,0,0-.21.26,1,1,0,0,0-.06.35.81.81,0,0,0,.13.47,1.13,1.13,0,0,0,.34.31,2.14,2.14,0,0,0,.48.23l.55.2.55.22a1.67,1.67,0,0,1,.47.31,1.6,1.6,0,0,1,.35.46,1.67,1.67,0,0,1,.12.67A1.53,1.53,0,0,1,26.35,14Z"></path><path fill="#f9d073" d="M29.69,14.26a5.43,5.43,0,0,1-.79,1.33A5.64,5.64,0,0,1,21,7.66a6,6,0,0,1,1.33-.8,5.52,5.52,0,0,0-.45,2.23,5.63,5.63,0,0,0,3.3,5.12,1.33,1.33,0,0,1-.53.15l-.33,0a2.49,2.49,0,0,1-.65-.07,3.92,3.92,0,0,1-.45-.15,2.59,2.59,0,0,1-.3-.16.53.53,0,0,0-.18-.07l-.07,0a.09.09,0,0,0,0,.06.21.21,0,0,0,0,.12.81.81,0,0,0,0,.17.68.68,0,0,0,0,.22.31.31,0,0,0,.06.13.73.73,0,0,0,.15.11l.27.11.33.09a3,3,0,0,0,.43.07l-.11,1a.08.08,0,0,0,0,.07.12.12,0,0,0,.05.05l.11,0h.32l.09,0s0,0,0,0a.14.14,0,0,0,0-.06l.11-1h.1a2.44,2.44,0,0,0,.64-.11l.1,0a1.93,1.93,0,0,0,.65-.36s0,0,0,0a5.06,5.06,0,0,0,1.51.22A5.43,5.43,0,0,0,29.69,14.26Z"></path><path fill="#f4c66a" d="M28.9,15.59A5.64,5.64,0,1,1,21,7.66a5.64,5.64,0,0,0,7.93,7.93Z"></path><path d="M26.49,13.33a1.53,1.53,0,0,1-.14.68,1.43,1.43,0,0,1-.41.53,1.93,1.93,0,0,1-.65.36,3.06,3.06,0,0,1-.84.15l-.11,1a.14.14,0,0,1,0,.06s0,0,0,0l-.09,0h-.32l-.11,0a.12.12,0,0,1-.05-.05.08.08,0,0,1,0-.07l.11-1a3,3,0,0,1-.43-.07l-.33-.09-.27-.11a.73.73,0,0,1-.15-.11.31.31,0,0,1-.06-.13.68.68,0,0,1,0-.22.81.81,0,0,1,0-.17.21.21,0,0,1,0-.12.09.09,0,0,1,0-.06l.07,0a.53.53,0,0,1,.18.07,2.59,2.59,0,0,0,.3.16,3.92,3.92,0,0,0,.45.15,2.49,2.49,0,0,0,.65.07,1.6,1.6,0,0,0,1-.27.84.84,0,0,0,.35-.71.74.74,0,0,0-.13-.46,1.07,1.07,0,0,0-.34-.33,1.86,1.86,0,0,0-.47-.22l-.54-.2c-.19-.07-.36-.15-.54-.23a2,2,0,0,1-.47-.31,1.53,1.53,0,0,1-.34-.46,1.51,1.51,0,0,1-.13-.67,1.44,1.44,0,0,1,.11-.59,1.29,1.29,0,0,1,.33-.48,1.5,1.5,0,0,1,.54-.33A2.5,2.5,0,0,1,24.44,9l.09-1s0,0,0,0l.05,0,.09,0H25l.11,0a.07.07,0,0,1,0,0,.11.11,0,0,1,0,.06l-.1.94.29,0,.29.09.24.1.15.08.05.07s0,.05,0,.08,0,.06,0,.1v.29a.41.41,0,0,1,0,.09.15.15,0,0,1,0,.06L26,10a.43.43,0,0,1-.17-.06,1.92,1.92,0,0,0-.28-.13,2.69,2.69,0,0,0-.4-.13,1.9,1.9,0,0,0-.5-.06,2.12,2.12,0,0,0-.54.06,1,1,0,0,0-.36.17.75.75,0,0,0-.21.26,1,1,0,0,0-.06.35.81.81,0,0,0,.13.47,1.13,1.13,0,0,0,.34.31,2.14,2.14,0,0,0,.48.23l.55.2.55.22a1.67,1.67,0,0,1,.47.31,1.6,1.6,0,0,1,.35.46A1.67,1.67,0,0,1,26.49,13.33Z"></path><path fill="#f9d073" d="M51.83,10.81a5.29,5.29,0,0,1-.8,1.33,5.56,5.56,0,0,1-3.54,1.26,5.64,5.64,0,0,1-5.64-5.63A5.72,5.72,0,0,1,43.1,4.21a5.77,5.77,0,0,1,1.33-.79,5.64,5.64,0,0,0,2.85,7.34,1.32,1.32,0,0,1-.52.15l-.34,0a2.54,2.54,0,0,1-.65-.07l-.45-.15-.3-.15a.43.43,0,0,0-.17-.07l-.07,0a.12.12,0,0,0-.05.05.21.21,0,0,0,0,.12.81.81,0,0,0,0,.17.75.75,0,0,0,0,.23.19.19,0,0,0,.07.12.73.73,0,0,0,.15.11l.26.11.34.09.42.08-.11,1a.08.08,0,0,0,0,.07.12.12,0,0,0,0,.05l.11,0h.32l.09,0s0,0,0,0a.14.14,0,0,0,0-.06l.11-1h.11a3,3,0,0,0,.64-.12l.1,0a2.36,2.36,0,0,0,.65-.35s0,0,0,0a5.54,5.54,0,0,0,3.72-.25Z"></path><path fill="#f4c66a" d="M51,12.14A5.64,5.64,0,1,1,43.1,4.21a5.72,5.72,0,0,0-1.25,3.56,5.64,5.64,0,0,0,5.64,5.63A5.56,5.56,0,0,0,51,12.14Z"></path></svg>