<svg xmlns="http://www.w3.org/2000/svg" enable-background="new 0 0 64 64" viewBox="0 0 64 64" id="installment-loan"><path fill="#5a5b5d" d="M36 21.234V24c0 1.105.895 2 2 2l0 0h2c1.105 0 2-.895 2-2V21.95M60 21.234V24c0 1.105-.895 2-2 2l0 0h-2c-1.105 0-2-.895-2-2V21.95"></path><path fill="#52a04f" d="M48,14c-3.372,0-6.769-0.281-10.097-0.835L36.917,13H33v-2h4c0.055,0,0.11,0.004,0.165,0.014
			l1.068,0.178c6.438,1.072,13.098,1.072,19.535,0l1.068-0.178C58.89,11.004,58.945,11,59,11h4v2h-3.917l-0.986,0.165
			C54.769,13.719,51.372,14,48,14z"></path><path fill="#6db569" d="M58,22c1.657,0,3-1.343,3-3v0v-2.172c0-1.811-0.719-3.548-2-4.828l0,0l-1.05-3.153
		c-0.566-1.7-2.158-2.847-3.95-2.846h0H42h0c-1.792-0.001-3.383,1.146-3.95,2.846L37,12l0,0c-1.281,1.281-2,3.017-2,4.828V19v0
		c0,1.657,1.343,3,3,3H58z"></path><path fill="#8cc687" d="M61,19v-2.172c0-1.811-0.719-3.548-2-4.828l-1.05-3.153C57.383,7.147,55.792,6,54,6.001h-9
		C43.208,6,41.617,7.147,41.05,8.847L40,12c-1.281,1.281-2,3.017-2,4.828V19c0,1.657,1.343,3,3,3h17C59.657,22,61,20.657,61,19z"></path><path fill="#6ec5e7" d="M48,13c3.328,0,6.65-0.275,9.932-0.822L59,12l-1.05-3.153C57.383,7.147,55.792,6,54,6.001H42
		C40.208,6,38.617,7.147,38.05,8.847L37,12l1.068,0.178C41.35,12.725,44.672,13,48,13z"></path><path fill="#92e0f7" d="M41.05,8.847L40,12c-0.13,0.13-0.249,0.267-0.367,0.406C42.405,12.793,45.2,13,48,13
		c3.328,0,6.65-0.275,9.932-0.822L59,12l-1.05-3.153C57.383,7.147,55.792,6,54,6.001h-9C43.208,6,41.617,7.147,41.05,8.847z"></path><polygon fill="#c9c9c9" points="26 13.667 26 26 6 26 6 13.667 16 7"></polygon><polygon fill="#ddd" points="26 15.667 16 9 6 15.667 6 26 26 26"></polygon><rect width="12" height="2" x="42" y="17" fill="#fff"></rect><path fill="#6db569" d="M54.8 33.4l-3-4c-.377-.504-1.223-.504-1.6 0l-3 4 1.6 1.199 1.087-1.449C49.348 35.91 46.915 38 44 38v2c4.099 0 7.483-3.1 7.942-7.077L53.2 34.6 54.8 33.4zM14.113 33.151L15.2 34.6l1.6-1.199-3-4c-.377-.504-1.223-.504-1.6 0l-3 4 1.6 1.199 1.258-1.677C12.517 36.9 15.901 40 20 40v-2C17.085 38 14.652 35.91 14.113 33.151z"></path><polygon fill="#dc4a4a" points="4 15 16 7 28 15 30 11 16 2 2 11"></polygon><rect width="8" height="10" x="12" y="16" fill="#fff"></rect><rect width="12" height="2" x="10" y="15" fill="#c9c9c9"></rect><polyline fill="#893b20" points="22 5.857 22 2 26 2 26 8.429"></polyline><polygon fill="#e56a6a" points="2.757 12.513 4 15 16 7 28 15 29.243 12.513 16 4"></polygon><path fill="#ffd997" d="M39 16.667c0-.42-.198-.815-.533-1.067l-2.658-1.994h0C35.283 14.589 35 15.694 35 16.828V18h2.667C38.403 18 39 17.403 39 16.667zM60.192 13.606L57.533 15.6C57.198 15.852 57 16.247 57 16.667 57 17.403 57.597 18 58.333 18L61 17.999v-1.171C61 15.694 60.717 14.589 60.192 13.606z"></path><circle cx="32" cy="39" r="9" fill="#e7b541"></circle><path fill="#f9cb6e" d="M32,30c-2.231,0-4.268,0.816-5.84,2.16C24.816,33.732,24,35.769,24,38c0,4.971,4.029,9,9,9
			c2.231,0,4.267-0.816,5.84-2.16C40.184,43.268,41,41.231,41,39C41,34.029,36.971,30,32,30z"></path><circle cx="32" cy="39" r="6" fill="#ffe1b6"></circle><path fill="#f9cb6e" d="M32,38c-0.551,0-1-0.449-1-1s0.449-1,1-1s1,0.449,1,1h2c0-1.302-0.839-2.402-2-2.816V33h-2v1.184
			c-1.161,0.414-2,1.514-2,2.816c0,1.654,1.346,3,3,3c0.551,0,1,0.449,1,1s-0.449,1-1,1s-1-0.449-1-1h-2
			c0,1.302,0.839,2.402,2,2.816V45h2v-1.184c1.161-0.414,2-1.514,2-2.816C35,39.346,33.654,38,32,38z"></path><g><rect width="6" height="14" x="13" y="47" fill="#4084c1"></rect><path fill="#edb9ae" d="M19,59L19,59c1.323,0,2.634,0.238,3.873,0.702l4.952,1.857c0.777,0.291,1.6,0.441,2.43,0.441h0
				c1.145,0,2.273-0.284,3.281-0.827l10.313-5.553C44.558,55.238,45,54.498,45,53.693v0C45,52.758,44.242,52,43.307,52h0
				c-0.203,0-0.404,0.037-0.594,0.108l-5.84,2.19C35.634,54.762,34.323,55,33,55h0h0c1.105,0,2-0.895,2-2v0c0-1.105-0.895-2-2-2h-4
				l-0.358-0.143C25.576,49.63,22.303,49,19,49h0"></path><path fill="#59a2d8" d="M16,47v8c0,1.657,1.343,3,3,3V47H16z"></path><path fill="#fee2d6" d="M27.825,59.559c0.777,0.291,1.6,0.441,2.43,0.441c1.145,0,2.273-0.284,3.281-0.827l10.313-5.553
				c0.374-0.201,0.667-0.506,0.867-0.864C44.412,52.3,43.895,52,43.307,52c-0.203,0-0.404,0.036-0.594,0.108l-5.84,2.19
				C35.634,54.762,34.323,55,33,55c1.105,0,2-0.895,2-2c0-1.105-0.895-2-2-2h-4l-0.358-0.143C25.576,49.63,22.303,49,19,49v8
				c1.323,0,2.634,0.238,3.873,0.702L27.825,59.559z"></path><g><rect width="6" height="2" x="27" y="54" fill="#edb9ae"></rect></g></g></svg>