<svg xmlns="http://www.w3.org/2000/svg" width="64" height="64" enable-background="new 0 0 64 64" viewBox="0 0 64 64" id="house-cost"><path fill="#2B2F64" d="M13.714,0C6.443,0,0.521,5.912,0.521,13.191c0,7.27,5.922,13.191,13.192,13.191
		c7.279,0,13.191-5.922,13.191-13.191C26.905,5.912,20.993,0,13.714,0z M13.714,24.475c-6.218,0-11.283-5.066-11.283-11.283
		c0-6.227,5.065-11.283,11.283-11.283c6.227,0,11.282,5.057,11.282,11.283C24.996,19.408,19.94,24.475,13.714,24.475z"></path><path fill="#FEDC7D" d="M13.714,1.908c-6.218,0-11.283,5.057-11.283,11.283c0,6.217,5.065,11.283,11.283,11.283
		c6.227,0,11.282-5.066,11.282-11.283C24.996,6.965,19.94,1.908,13.714,1.908z M17.441,16.891c-0.187,0.424-0.452,0.787-0.797,1.092
		c-0.344,0.305-0.767,0.551-1.249,0.738s-1.023,0.305-1.613,0.354l-0.187,1.969c-0.01,0.049-0.021,0.088-0.05,0.127
		c-0.02,0.039-0.059,0.068-0.118,0.098c-0.059,0.02-0.138,0.041-0.235,0.061c-0.099,0.01-0.227,0.02-0.384,0.02
		c-0.197,0-0.354-0.01-0.473-0.029c-0.118-0.021-0.216-0.041-0.285-0.08c-0.068-0.029-0.108-0.078-0.128-0.127
		c-0.029-0.059-0.029-0.119-0.02-0.188l0.197-1.869c-0.266-0.039-0.512-0.088-0.748-0.146c-0.236-0.061-0.442-0.119-0.64-0.188
		c-0.187-0.078-0.354-0.148-0.491-0.217c-0.139-0.078-0.236-0.146-0.315-0.217c-0.068-0.078-0.118-0.176-0.147-0.314
		c-0.029-0.137-0.049-0.344-0.049-0.619c0-0.207,0.01-0.375,0.02-0.512c0.01-0.139,0.039-0.236,0.068-0.314
		c0.03-0.07,0.069-0.119,0.108-0.148c0.05-0.029,0.108-0.039,0.167-0.039c0.079,0,0.197,0.039,0.345,0.139
		c0.157,0.088,0.354,0.186,0.59,0.305c0.246,0.107,0.531,0.205,0.876,0.295c0.334,0.098,0.737,0.137,1.2,0.137
		c0.718,0,1.249-0.127,1.604-0.393c0.354-0.266,0.521-0.619,0.521-1.063c0-0.295-0.069-0.541-0.227-0.729
		c-0.147-0.197-0.345-0.363-0.601-0.502c-0.245-0.146-0.53-0.275-0.855-0.393c-0.314-0.109-0.64-0.236-0.964-0.363
		c-0.335-0.129-0.659-0.277-0.974-0.453c-0.315-0.168-0.601-0.385-0.856-0.631c-0.245-0.254-0.452-0.561-0.6-0.924
		c-0.147-0.354-0.227-0.787-0.227-1.299c0-0.461,0.079-0.885,0.227-1.258c0.157-0.375,0.374-0.709,0.669-0.994
		c0.285-0.275,0.64-0.512,1.063-0.68c0.423-0.176,0.895-0.295,1.436-0.354l0.178-1.859c0.01-0.049,0.02-0.088,0.049-0.117
		c0.02-0.041,0.06-0.07,0.118-0.1c0.06-0.029,0.138-0.049,0.236-0.059s0.226-0.02,0.384-0.02c0.187,0,0.344,0.01,0.472,0.029
		s0.227,0.049,0.295,0.078c0.069,0.041,0.108,0.08,0.128,0.139c0.02,0.049,0.03,0.117,0.03,0.178l-0.188,1.74
		c0.167,0.029,0.354,0.059,0.541,0.107c0.188,0.041,0.374,0.09,0.531,0.148c0.167,0.059,0.325,0.117,0.452,0.188
		c0.138,0.059,0.236,0.117,0.285,0.176c0.05,0.051,0.089,0.1,0.118,0.158c0.03,0.049,0.05,0.117,0.069,0.188
		c0.01,0.078,0.02,0.176,0.029,0.275c0.01,0.107,0.01,0.236,0.01,0.373c0,0.197-0.01,0.354-0.02,0.473
		c0,0.127-0.02,0.217-0.049,0.285c-0.02,0.059-0.05,0.107-0.079,0.127s-0.068,0.029-0.108,0.029c-0.078,0-0.196-0.039-0.354-0.117
		c-0.158-0.078-0.345-0.168-0.57-0.256c-0.217-0.098-0.482-0.178-0.768-0.266c-0.295-0.078-0.62-0.117-0.964-0.117
		c-0.325,0-0.591,0.029-0.817,0.098c-0.235,0.059-0.413,0.148-0.561,0.256c-0.138,0.107-0.245,0.246-0.305,0.393
		c-0.068,0.158-0.108,0.326-0.108,0.512c0,0.285,0.079,0.531,0.236,0.729c0.147,0.197,0.354,0.363,0.61,0.502
		c0.255,0.146,0.541,0.275,0.865,0.383c0.324,0.119,0.649,0.246,0.983,0.375c0.335,0.127,0.669,0.275,0.984,0.441
		c0.324,0.178,0.609,0.385,0.865,0.631s0.452,0.551,0.61,0.904c0.147,0.354,0.226,0.777,0.226,1.279
		C17.717,15.986,17.629,16.469,17.441,16.891z"></path><path fill="#2B2F64" d="M17.717 15.465c0 .521-.088 1.004-.275 1.426-.187.424-.452.787-.797 1.092-.344.305-.767.551-1.249.738s-1.023.305-1.613.354l-.187 1.969c-.01.049-.021.088-.05.127-.02.039-.059.068-.118.098-.059.02-.138.041-.235.061-.099.01-.227.02-.384.02-.197 0-.354-.01-.473-.029-.118-.021-.216-.041-.285-.08-.068-.029-.108-.078-.128-.127-.029-.059-.029-.119-.02-.188l.197-1.869c-.266-.039-.512-.088-.748-.146-.236-.061-.442-.119-.64-.188-.187-.078-.354-.148-.491-.217-.139-.078-.236-.146-.315-.217-.068-.078-.118-.176-.147-.314-.029-.137-.049-.344-.049-.619 0-.207.01-.375.02-.512.01-.139.039-.236.068-.314.03-.07.069-.119.108-.148.05-.029.108-.039.167-.039.079 0 .197.039.345.139.157.088.354.186.59.305.246.107.531.205.876.295.334.098.737.137 1.2.137.718 0 1.249-.127 1.604-.393.354-.266.521-.619.521-1.063 0-.295-.069-.541-.227-.729-.147-.197-.345-.363-.601-.502-.245-.146-.53-.275-.855-.393-.314-.109-.64-.236-.964-.363-.335-.129-.659-.277-.974-.453-.315-.168-.601-.385-.856-.631-.245-.254-.452-.561-.6-.924-.147-.354-.227-.787-.227-1.299 0-.461.079-.885.227-1.258.157-.375.374-.709.669-.994.285-.275.64-.512 1.063-.68.423-.176.895-.295 1.436-.354l.178-1.859c.01-.049.02-.088.049-.117.02-.041.06-.07.118-.1.06-.029.138-.049.236-.059s.226-.02.384-.02c.187 0 .344.01.472.029s.227.049.295.078c.069.041.108.08.128.139.02.049.03.117.03.178l-.188 1.74c.167.029.354.059.541.107.188.041.374.09.531.148.167.059.325.117.452.188.138.059.236.117.285.176.05.051.089.1.118.158.03.049.05.117.069.188.01.078.02.176.029.275.01.107.01.236.01.373 0 .197-.01.354-.02.473 0 .127-.02.217-.049.285-.02.059-.05.107-.079.127s-.068.029-.108.029c-.078 0-.196-.039-.354-.117-.158-.078-.345-.168-.57-.256-.217-.098-.482-.178-.768-.266-.295-.078-.62-.117-.964-.117-.325 0-.591.029-.817.098-.235.059-.413.148-.561.256-.138.107-.245.246-.305.393-.068.158-.108.326-.108.512 0 .285.079.531.236.729.147.197.354.363.61.502.255.146.541.275.865.383.324.119.649.246.983.375.335.127.669.275.984.441.324.178.609.385.865.631s.452.551.61.904C17.639 14.539 17.717 14.963 17.717 15.465zM63.096 41.984l-4.023-3.02v-6.236c0-.531-.423-.955-.954-.955h-5.44c-.521 0-.954.424-.954.955v.748l-4.761-3.57c-.345-.256-.807-.256-1.142 0l-16.28 12.078c-.334.246-.472.67-.344 1.063.138.395.501.65.904.65h2.096v19.35c0 .521.423.953.954.953h26.334c.531 0 .954-.432.954-.953v-19.35h2.085c.414 0 .777-.256.905-.65C63.558 42.654 63.43 42.23 63.096 41.984zM53.632 33.684h3.532v3.855l-3.532-2.637V33.684zM50.199 62.092h-7.762v-10.84h7.762V62.092zM58.531 62.092h-6.424V50.297c0-.521-.423-.953-.954-.953h-9.67c-.531 0-.954.432-.954.953v11.795h-6.424V43.697h24.426V62.092zM32.994 41.799l13.388-9.936 13.28 9.936H32.994z"></path><polygon fill="#E0E1E0" points="57.164 33.684 57.164 37.539 53.632 34.902 53.632 33.684"></polygon><polygon fill="#EAEAEA" points="59.662 41.799 32.994 41.799 46.382 31.863"></polygon><rect width="7.762" height="10.84" x="42.438" y="51.252" fill="#FEDC7D"></rect><path fill="#4FBEE6" d="M58.531,43.697v18.395h-6.424V50.297c0-0.521-0.423-0.953-0.954-0.953h-9.67
		c-0.531,0-0.954,0.432-0.954,0.953v11.795h-6.424V43.697H58.531z"></path><path fill="#2B2F64" d="M36.204 4.627h11.044c.425.002 4.148.143 4.148 3.975h.01c-.113.869-.127 3.064-.043 9.211l-2.415-2.428c-.372-.373-.977-.375-1.349-.004-.374.373-.376.977-.004 1.35l4.079 4.102c0 0 .002 0 .003.002.173.172.41.279.673.279l0 0c.004 0 .007 0 .01 0 .002 0 .003 0 .005 0 .063-.002.118-.027.178-.039.063-.014.13-.016.189-.043.116-.049.219-.123.305-.211.001-.002.003-.002.004-.004l3.909-4.1c.363-.383.35-.986-.032-1.35-.38-.361-.984-.35-1.349.031l-2.296 2.41c-.045-3.766-.072-8.238-.002-8.959.021-.08.033-.164.033-.248 0-4.654-3.959-5.883-6.053-5.883H36.204c-.526 0-.953.426-.953.953S35.678 4.627 36.204 4.627zM24.763 51.9H13.72c-.426-.004-4.149-.143-4.149-3.975h-.01c.114-.871.127-3.066.044-9.213l2.415 2.428c.371.373.976.375 1.349.004.374-.371.376-.977.004-1.35l-4.079-4.1c-.18-.18-.423-.281-.677-.281-.003 0-.007 0-.01 0-.001 0-.001 0-.002 0s-.002 0-.002 0c-.063 0-.117.025-.177.037-.064.014-.132.016-.191.043-.115.051-.218.123-.305.213-.001 0-.002 0-.003.002l-3.909 4.1c-.364.383-.35.986.032 1.35.184.176.421.264.658.264.251 0 .503-.1.689-.295l2.297-2.408c.044 3.766.072 8.238.002 8.957-.022.08-.033.164-.033.25 0 4.652 3.959 5.881 6.053 5.881h11.047c.527 0 .954-.426.954-.953S25.29 51.9 24.763 51.9z"></path></svg>