<svg xmlns="http://www.w3.org/2000/svg" viewBox="0 0 48 48" id="pension"><g><path d="M4,20C4,12.46,4,8.69,6.34,6.34S12.46,4,20,4h8c7.54,0,11.31,0,13.66,2.34S44,12.46,44,20v8c0,7.54,0,11.31-2.34,13.66S35.54,44,28,44H20c-7.54,0-11.31,0-13.66-2.34S4,35.54,4,28Z"></path><path fill="#fff" d="M33,23.53a.77.77,0,0,0-.77.73,8.23,8.23,0,0,1-1.46,4.46l-3.55-3.55,2-.64a.74.74,0,0,0,.48-.94.75.75,0,0,0-.94-.49L19.66,26a.25.25,0,0,1-.31-.14L15.7,16.72a.75.75,0,1,0-1.4.56L18,26.42a1.76,1.76,0,0,0,1.63,1.09,1.57,1.57,0,0,0,.52-.08l1.14-.36v4.71A8.23,8.23,0,0,1,17.45,29a.75.75,0,1,0-1.2.9,9.74,9.74,0,0,0,17.49-5.6A.75.75,0,0,0,33,23.53ZM22.75,26.59l2.87-.91,1.49,1.49-4.36,1.46ZM24,32.25a7.81,7.81,0,0,1-1.28-.11.7.7,0,0,0,0-.14V30.21l5.55-1.85,1.51,1.51A8.17,8.17,0,0,1,24,32.25Zm-1-8.5A4.75,4.75,0,1,0,18.25,19,4.75,4.75,0,0,0,23,23.75Zm0-8A3.25,3.25,0,1,1,19.75,19,3.26,3.26,0,0,1,23,15.75Zm.5,3.92a.18.18,0,0,0-.17-.17h-.66a1.16,1.16,0,0,1-.17-2.3V17a.5.5,0,0,1,1,0v.17H24a.5.5,0,0,1,.5.5.5.5,0,0,1-.5.5H22.67a.17.17,0,0,0-.17.16.18.18,0,0,0,.17.17h.66a1.16,1.16,0,0,1,.17,2.3V21a.5.5,0,0,1-1,0v-.17H22a.5.5,0,0,1-.5-.5.5.5,0,0,1,.5-.5h1.33A.17.17,0,0,0,23.5,19.67Z"></path></g></svg>