<svg xmlns="http://www.w3.org/2000/svg" enable-background="new 0 0 66.5 66.5" viewBox="0 0 66.5 66.5" id="investment"><rect width="13.7" height="24.1" x="1" y="40.1" fill="#1FA6F8"></rect><rect width="4.4" height="4.4" x="7.1" y="55.2" fill="#FFF"></rect><path fill="#BCD6EF" d="M41,5.4L37,8c-2.7,1.4-2.1,4.1-2.1,4.1h-9.4c1-3.2-2.4-4.2-2.4-4.2c-2.6-0.4-3.8-2.8-3.8-2.8
			c0.1,0,0.3,0.1,0.4,0.1c0.4,0,0.9-0.2,1.1-0.6c1.1-1.5,3-1.3,3-1.3c2.1-1.7,4.9,0.1,4.9,0.1c1.2,0.5,2.8,0.5,4.1,0.4
			c0.9-0.1,1.7-0.3,2.5-0.6C39,1.8,41,5.4,41,5.4z"></path><path fill="#FF9889" d="M43.5,29.8c0.2,7.3-6.5,8-6.5,8c-6.3,0.5-10.9,0.4-14,0c-3.4-0.5-5.9-3.3-5.9-6.7c0-3,0.8-5.9,1.8-8.3
			c1.2-2.9,3-5.6,5.2-8c1.7-1.9,1.9-2.7,1.9-2.7h9.4C43.7,17.7,43.5,29.8,43.5,29.8z"></path><path fill="#FFF" d="M39.9,26.9c0,4.1-3.3,7.3-7.3,7.3c-4.1,0-7.3-3.3-7.3-7.3c0-4.1,3.3-7.3,7.3-7.3
			C36.6,19.6,39.9,22.9,39.9,26.9z"></path><rect width="19.7" height="4.6" x="41" y="31.8" fill="#FFF"></rect><rect width="19.7" height="4.6" x="42.8" y="27.3" fill="#FFF"></rect><rect width="19.7" height="4.6" x="41" y="22.7" fill="#FFF"></rect><rect width="19.7" height="4.6" x="42.8" y="18.1" fill="#FFF"></rect><g><rect width="19.7" height="4.6" x="42.5" y="33" fill="#0FCAAD"></rect><rect width="19.7" height="4.6" x="44.3" y="28.4" fill="#BCD6EF"></rect><rect width="19.7" height="4.6" x="42.5" y="23.8" fill="#1FA6F8"></rect><rect width="19.7" height="4.6" x="44.3" y="19.2" fill="#BCD6EF"></rect></g><g><path fill="#222F59" d="M65.1 44.6c-.8-1.8-2.8-2.5-4.5-1.6L44.4 53.4c-.5.4-1.2.5-1.8.5H31.8c-.4 0-.7-.3-.8-.6-.1-.5-.1-1.1.2-1.4.2-.3.6-.4 1.1-.4h10.2c1.8 0 3.3-1.6 3.3-3.6 0-2-1.5-3.6-3.3-3.6H31.8c-.5 0-1-.2-1.2-.5-1.6-2.1-4.3-3.1-7.9-3.1-2.3 0-4.4.4-5.4.7v-2.9H2.5v25.1h14.7v-2.3l2.1-.1c1.6-.1 3.3.2 4.8.7l10 3.6c.7.3 1.5.4 2.2.4 1.3 0 2.5-.4 3.6-1l9.4-5.9 14.4-9.4C65.3 48.5 65.9 46.3 65.1 44.6zM3.5 62.5V39.3h12.7v2.6c0 0 0 0 0 0v18.7c0 0 0 0 0 0v1.8H3.5zM63.2 48.6L48.8 58l-9.4 5.9c-.9.6-2 .9-3.1.9-.6 0-1.3-.1-1.9-.3l-10-3.6c-1.5-.5-3-.8-4.6-.8-.2 0-.4 0-.5 0l-2 .1V42.3c.8-.2 3-.7 5.4-.7 3.3 0 5.7.9 7.1 2.7.5.6 1.2.9 2 .9h10.7c1.3 0 2.3 1.2 2.3 2.6 0 1.5-1 2.6-2.3 2.6H32.3c-.8 0-1.5.3-1.9.7-.4.5-.6 1.3-.4 2.2.1.9.9 1.5 1.7 1.5h10.8c.8 0 1.7-.2 2.4-.7l16.2-10.4c1.1-.6 2.5-.1 3.1 1.1C64.8 46.3 64.3 47.9 63.2 48.6zM24.3 37c1.7.2 3.8.3 6.2.3 2.4 0 5-.1 8-.3 0 0 .9-.1 2-.6v.4h20.7v-4.6H63v-5.6h-1.8v-3.6H63v-5.6H43c-1.2-2.6-3-5.1-5.7-7-.1-.5-.1-2.3 1.9-3.4l4.3-2.9-.2-.4c-.1-.1-1.6-2.9-4.5-2.9-1.6 0-5 1.8-7.8.5-1.6-1-3.8-1.2-5.3-.1-2.9-.1-3.1 2.3-4.3 1.9l-1.2-.4c.9 1.8 2 3.8 4.6 4.2 0 0 1.4.4 2 1.5.3.6.4 1.3.1 2.1l0 0c0 0-.3.8-1.8 2.5-2.3 2.6-4.1 5.3-5.3 8.1-1.2 2.9-1.8 5.8-1.8 8.4C18.1 33.5 20.7 36.5 24.3 37zM60.2 35.9H41.5v-3.6h.8 17.9V35.9zM62 27.8v3.6h-.8H43.3v-3.6h17.9H62zM60.2 26.8H42.3h-.8v-3.6h.8 17.9V26.8zM43.3 18.6H62v3.6h-.8H43.3V18.6zM25.1 6.2C23.7 6 22.8 5 22.2 4.4c1.5-.4 1-1.9 3.5-1.9.1 0 .1 0 .1 0l.2 0 .2-.1c2.8-2.2 4.6 2.3 11.3 0 .5-.2.9-.2 1.3-.2 1.7 0 2.9 1.3 3.4 2l-3.5 2.3c-1.9 1-2.4 2.7-2.4 3.9-1.1.1-2.3.1-3.5.1h-.5c-1.3 0-2.7-.1-4.1-.1.1-.7 0-1.4-.4-2C27 6.7 25.3 6.2 25.1 6.2zM20.8 21.8c1.1-2.7 2.8-5.3 5.1-7.8 1.1-1.3 1.7-2.1 1.9-2.5h4.6c0 0 .1 0 .1 0 0 0 0 0 .1 0h2.6v7.4h1v-6.6l2 4 .9-.4-2-4.1c2.5 1.9 4.1 4.3 5.2 6.8v3.6h-1.8v5.6h1.8v3.6h-1.8v4.1c-1.1.5-2 .6-2.1.6-5.8.4-10.6.4-13.9 0-3.1-.4-5.4-3-5.4-6.2C19.1 27.3 19.7 24.6 20.8 21.8z"></path><path fill="#222F59" d="M30.4,28.7l-0.9,1.1c0.9,0.8,1.9,1.2,3,1.3V32h0.8v-0.9c1.5-0.1,2.8-0.9,2.8-2.5c0-1.6-1.1-2.2-2.7-2.5h0
			v-2.3c0.6,0.1,1.2,0.3,1.8,0.7l0.8-1.1c-0.8-0.5-1.7-0.9-2.6-0.9v-0.6h-0.8v0.6c-1.5,0.1-2.7,1-2.7,2.5c0,1.5,1.1,2.1,2.7,2.5v2.4
			C31.8,29.7,31.1,29.3,30.4,28.7z M33.3,27.6c0.7,0.2,1.3,0.4,1.3,1.2c0,0.7-0.6,1-1.3,1.1V27.6z M31.3,24.8c0-0.6,0.5-1,1.2-1v2.1
			C31.8,25.6,31.3,25.4,31.3,24.8z"></path></g></svg>