<svg xmlns="http://www.w3.org/2000/svg" enable-background="new 0 0 64 64" viewBox="0 0 64 64" id="tax"><g><linearGradient id="a" x1="33" x2="33" y1="1" y2="63" gradientUnits="userSpaceOnUse"><stop offset=".239" stop-color="#e8f8fc"></stop><stop offset=".36" stop-color="#daf5fb"></stop><stop offset=".586" stop-color="#b6ebf8"></stop><stop offset=".638" stop-color="#ade9f7"></stop><stop offset=".672" stop-color="#a5e4f7"></stop><stop offset=".783" stop-color="#91d6f7"></stop><stop offset=".893" stop-color="#84cef7"></stop><stop offset="1" stop-color="#80cbf7"></stop></linearGradient><path fill="url(#a)" d="M57,7v43H34c-1.1,0-2,0.9-2,2v2.5c0,2.25-0.9,4.42-2.49,6.01c-0.79,0.79-1.73,1.42-2.76,1.84
			C25.73,62.78,24.62,63,23.5,63c-2.25,0-4.42-0.9-6.01-2.49C15.9,58.92,15,56.75,15,54.5c0-1.45,0-2.5,0-2.5V14c0,0,0-0.71,0-1.8V7
			c0-3.31-2.69-6-6-6h42C54.31,1,57,3.69,57,7z"></path><linearGradient id="b" x1="37.446" x2="17.471" y1="58.856" y2="38.881" gradientUnits="userSpaceOnUse"><stop offset=".345" stop-opacity="0"></stop><stop offset=".762" stop-color="#171825" stop-opacity=".191"></stop><stop offset="1" stop-color="#212335" stop-opacity=".3"></stop></linearGradient><path fill="url(#b)" d="M50.2,50H34c-1.1,0-2,0.9-2,2v2.5
			c0,2.25-0.9,4.42-2.49,6.01c-0.79,0.79-1.73,1.42-2.76,1.84C25.73,62.78,24.62,63,23.5,63c-2.25,0-4.42-0.9-6.01-2.49
			C15.9,58.92,15,56.75,15,54.5c0-1.45,0-2.5,0-2.5V39.79l11.36-13.62L50.2,50z"></path><linearGradient id="c" x1="3" x2="15" y1="7.5" y2="7.5" gradientUnits="userSpaceOnUse"><stop offset="0" stop-color="#a4eeff"></stop><stop offset=".732" stop-color="#02c0fc"></stop><stop offset="1" stop-color="#27a6ff"></stop></linearGradient><path fill="url(#c)" d="M15,7.206l0,4.994c0,1.09,0,1.8,0,1.8H5
			c-1.105,0-2-0.895-2-2V7c0-3.569,3.127-6.417,6.787-5.95C12.812,1.436,15,4.156,15,7.206z"></path><linearGradient id="d" x1="43.25" x2="43.25" y1="50" y2="63" gradientUnits="userSpaceOnUse"><stop offset="0" stop-color="#a4eeff"></stop><stop offset=".732" stop-color="#02c0fc"></stop><stop offset="1" stop-color="#27a6ff"></stop></linearGradient><path fill="url(#d)" d="M63,52v2.817
			c0,1.007-0.136,2.019-0.491,2.961C61.28,61.047,58.233,63,55,63c-11.01,0-31.5,0-31.5,0c1.12,0,2.23-0.22,3.25-0.65
			c1.03-0.42,1.97-1.05,2.76-1.84C31.1,58.92,32,56.75,32,54.5V52c0-1.105,0.895-2,2-2h27C62.105,50,63,50.895,63,52z"></path><linearGradient id="e" x1="32" x2="51" y1="24" y2="24" gradientUnits="userSpaceOnUse"><stop offset="0" stop-color="#4d5460"></stop><stop offset=".447" stop-color="#384051"></stop><stop offset="1" stop-color="#212335"></stop></linearGradient><path fill="url(#e)" d="M49,26H34c-1.104,0-2-0.896-2-2
			s0.896-2,2-2h15c1.104,0,2,0.896,2,2S50.104,26,49,26z"></path><linearGradient id="f" x1="39" x2="51" y1="34" y2="34" gradientUnits="userSpaceOnUse"><stop offset="0" stop-color="#4d5460"></stop><stop offset=".447" stop-color="#384051"></stop><stop offset="1" stop-color="#212335"></stop></linearGradient><path fill="url(#f)" d="M49,36h-8c-1.104,0-2-0.896-2-2
			s0.896-2,2-2h8c1.104,0,2,0.896,2,2S50.104,36,49,36z"></path><linearGradient id="g" x1="25" x2="51" y1="14" y2="14" gradientUnits="userSpaceOnUse"><stop offset="0" stop-color="#4d5460"></stop><stop offset=".447" stop-color="#384051"></stop><stop offset="1" stop-color="#212335"></stop></linearGradient><path fill="url(#g)" d="M49,16H27c-1.104,0-2-0.896-2-2
			s0.896-2,2-2h22c1.104,0,2,0.896,2,2S50.104,16,49,16z"></path><linearGradient id="h" x1="9.781" x2="23.867" y1="25.308" y2="51.79" gradientUnits="userSpaceOnUse"><stop offset="0" stop-color="#fef156"></stop><stop offset=".447" stop-color="#ffc242"></stop><stop offset="1" stop-color="#fc753f"></stop></linearGradient><circle cx="16" cy="37" r="15" fill="url(#h)"></circle><path fill="#e8f8fc" d="M12 43c-.512 0-1.023-.195-1.414-.586-.781-.781-.781-2.047 0-2.828l8-8c.781-.781 2.047-.781 2.828 0 .781.781.781 2.047 0 2.828l-8 8C13.023 42.805 12.512 43 12 43zM11.02 34c-1.104 0-2.005-.896-2.005-2s.891-2 1.995-2h.01c1.105 0 2 .896 2 2S12.125 34 11.02 34zM21.02 44c-1.104 0-2.005-.896-2.005-2s.891-2 1.995-2h.01c1.105 0 2 .896 2 2S22.125 44 21.02 44z"></path></g></svg>